<svg width="2075" height="224" viewBox="0 0 2075 224" fill="none" xmlns="http://www.w3.org/2000/svg">
<path d="M163.169 60.5048C163.169 71.0049 160.369 80.1049 154.769 87.8048C149.402 95.5049 141.236 101.688 130.269 106.355C143.802 110.788 153.952 117.438 160.719 126.305C167.486 135.172 170.869 145.672 170.869 157.805C170.869 179.972 162.819 196.422 146.719 207.155C130.619 217.888 107.286 223.255 76.7188 223.255C72.2855 223.255 67.5022 223.138 62.3689 222.905C57.4689 222.672 52.4522 222.205 47.3189 221.505C42.1855 221.038 37.0522 220.222 31.9189 219.055C26.7855 218.122 22.0022 216.955 17.5688 215.555C6.36885 211.822 0.76885 204.938 0.76885 194.905V23.7548C0.76885 19.3215 1.93552 15.9382 4.26885 13.6048C6.60218 11.2715 9.86885 9.40485 14.0688 8.00485C22.0022 5.43818 31.2188 3.68817 41.7188 2.75484C52.2189 1.58817 63.1855 1.00484 74.6189 1.00484C102.852 1.00484 124.669 5.90484 140.069 15.7048C155.469 25.2715 163.169 40.2048 163.169 60.5048ZM124.669 156.055C124.669 146.722 121.286 139.372 114.519 134.005C107.986 128.638 98.4189 125.955 85.8189 125.955H44.8689V184.405C49.3022 185.572 54.5522 186.388 60.6189 186.855C66.9189 187.322 73.1022 187.555 79.1689 187.555C93.4022 187.555 104.486 185.105 112.419 180.205C120.586 175.072 124.669 167.022 124.669 156.055ZM44.8689 92.7048H80.2189C92.8189 92.7048 102.152 90.1382 108.219 85.0049C114.519 79.8715 117.669 72.7548 117.669 63.6548C117.669 45.2215 103.436 36.0048 74.9688 36.0048C69.1355 36.0048 63.5355 36.2382 58.1689 36.7048C53.0355 37.1715 48.6022 37.7549 44.8689 38.4549V92.7048ZM332.7 168.305H254.3C251.733 176.938 248.933 185.922 245.9 195.255C243.1 204.588 240.767 212.288 238.9 218.355C236.567 219.288 234 220.105 231.2 220.805C228.633 221.505 225.367 221.855 221.4 221.855C213.467 221.855 207.283 220.338 202.85 217.305C198.417 214.038 196.2 209.488 196.2 203.655C196.2 200.855 196.55 198.172 197.25 195.605C198.183 192.805 199.233 189.655 200.4 186.155C202.267 179.622 204.717 171.805 207.75 162.705C211.017 153.372 214.4 143.338 217.9 132.605C221.633 121.638 225.6 110.438 229.8 99.0049C234 87.3382 237.967 76.1382 241.7 65.4049C245.667 54.4382 249.4 44.2882 252.9 34.9548C256.633 25.3882 259.783 17.2215 262.35 10.4548C265.383 8.82152 269.817 7.18818 275.65 5.55484C281.717 3.92152 287.783 3.10486 293.85 3.10486C302.017 3.10486 309.483 4.38819 316.25 6.95485C323.017 9.28818 327.333 13.1382 329.2 18.5048C333.867 31.3382 339 46.1548 344.6 62.9548C350.2 79.5215 355.8 96.6715 361.4 114.405C367.233 132.138 372.833 149.522 378.2 166.555C383.567 183.588 388.35 198.872 392.55 212.405C390.217 214.972 386.95 217.072 382.75 218.705C378.783 220.572 374 221.505 368.4 221.505C360.233 221.505 354.4 220.105 350.9 217.305C347.633 214.272 345.067 209.605 343.2 203.305L332.7 168.305ZM293.5 43.0048C291.4 48.8382 289.067 55.3715 286.5 62.6049C284.167 69.8382 281.6 77.4215 278.8 85.3548C276.233 93.0549 273.55 100.988 270.75 109.155C267.95 117.088 265.267 124.905 262.7 132.605H323.6L295.25 43.0048H293.5ZM473.173 218.005C471.073 218.472 468.04 219.055 464.073 219.755C460.34 220.455 456.256 220.805 451.823 220.805C442.956 220.805 436.656 219.172 432.923 215.905C429.423 212.638 427.673 207.155 427.673 199.455V23.7548C427.673 19.3215 428.84 15.9382 431.173 13.6048C433.506 11.2715 436.773 9.40485 440.973 8.00485C448.44 5.43818 457.19 3.68817 467.223 2.75484C477.49 1.58817 487.99 1.00484 498.723 1.00484C529.523 1.00484 552.623 7.42151 568.023 20.2548C583.423 32.8548 591.123 50.3549 591.123 72.7549C591.123 87.4549 587.273 100.288 579.573 111.255C571.873 121.988 561.256 130.272 547.723 136.105C557.99 149.405 567.79 162.122 577.123 174.255C586.69 186.155 593.806 195.488 598.473 202.255C596.606 208.322 593.34 213.105 588.673 216.605C584.006 219.872 578.873 221.505 573.273 221.505C566.04 221.505 560.44 219.872 556.473 216.605C552.74 213.338 549.006 208.905 545.273 203.305L505.723 144.155H473.173V218.005ZM501.173 108.455C514.473 108.455 525.09 105.538 533.023 99.7049C541.19 93.8715 545.273 85.0049 545.273 73.1049C545.273 49.5382 529.523 37.7548 498.023 37.7548C493.356 37.7548 488.806 37.9882 484.373 38.4549C480.173 38.9215 476.206 39.3882 472.473 39.8548V108.455H501.173ZM799.595 60.5048C799.595 71.0049 796.795 80.1049 791.195 87.8048C785.828 95.5049 777.661 101.688 766.695 106.355C780.228 110.788 790.378 117.438 797.145 126.305C803.911 135.172 807.295 145.672 807.295 157.805C807.295 179.972 799.245 196.422 783.145 207.155C767.045 217.888 743.711 223.255 713.145 223.255C708.711 223.255 703.928 223.138 698.795 222.905C693.895 222.672 688.878 222.205 683.745 221.505C678.611 221.038 673.478 220.222 668.345 219.055C663.211 218.122 658.428 216.955 653.995 215.555C642.795 211.822 637.195 204.938 637.195 194.905V23.7548C637.195 19.3215 638.361 15.9382 640.695 13.6048C643.028 11.2715 646.295 9.40485 650.495 8.00485C658.428 5.43818 667.645 3.68817 678.145 2.75484C688.645 1.58817 699.611 1.00484 711.045 1.00484C739.278 1.00484 761.095 5.90484 776.495 15.7048C791.895 25.2715 799.595 40.2048 799.595 60.5048ZM761.095 156.055C761.095 146.722 757.711 139.372 750.945 134.005C744.411 128.638 734.845 125.955 722.245 125.955H681.295V184.405C685.728 185.572 690.978 186.388 697.045 186.855C703.345 187.322 709.528 187.555 715.595 187.555C729.828 187.555 740.911 185.105 748.845 180.205C757.011 175.072 761.095 167.022 761.095 156.055ZM681.295 92.7048H716.645C729.245 92.7048 738.578 90.1382 744.645 85.0049C750.945 79.8715 754.095 72.7548 754.095 63.6548C754.095 45.2215 739.861 36.0048 711.395 36.0048C705.561 36.0048 699.961 36.2382 694.595 36.7048C689.461 37.1715 685.028 37.7549 681.295 38.4549V92.7048ZM874.626 219.055C867.159 219.055 861.209 216.838 856.776 212.405C852.576 207.972 850.476 202.022 850.476 194.555V30.0548C850.476 22.5882 852.576 16.7548 856.776 12.5549C861.209 8.12151 867.159 5.90484 874.626 5.90484H990.476C991.643 7.77151 992.693 10.2215 993.626 13.2548C994.559 16.2882 995.026 19.6715 995.026 23.4048C995.026 29.4715 993.626 34.1382 990.826 37.4049C988.026 40.6715 984.176 42.3049 979.276 42.3049H894.576V92.0048H979.976C981.143 93.8715 982.193 96.3215 983.126 99.3549C984.293 102.155 984.876 105.422 984.876 109.155C984.876 121.755 979.509 128.055 968.776 128.055H894.576V182.305H991.876C993.043 184.172 994.093 186.738 995.026 190.005C996.193 193.038 996.776 196.422 996.776 200.155C996.776 212.755 991.409 219.055 980.676 219.055H874.626ZM1084.99 218.005C1082.89 218.472 1079.86 219.055 1075.89 219.755C1072.16 220.455 1068.07 220.805 1063.64 220.805C1054.77 220.805 1048.47 219.172 1044.74 215.905C1041.24 212.638 1039.49 207.155 1039.49 199.455V23.7548C1039.49 19.3215 1040.66 15.9382 1042.99 13.6048C1045.32 11.2715 1048.59 9.40485 1052.79 8.00485C1060.26 5.43818 1069.01 3.68817 1079.04 2.75484C1089.31 1.58817 1099.81 1.00484 1110.54 1.00484C1141.34 1.00484 1164.44 7.42151 1179.84 20.2548C1195.24 32.8548 1202.94 50.3549 1202.94 72.7549C1202.94 87.4549 1199.09 100.288 1191.39 111.255C1183.69 121.988 1173.07 130.272 1159.54 136.105C1169.81 149.405 1179.61 162.122 1188.94 174.255C1198.51 186.155 1205.62 195.488 1210.29 202.255C1208.42 208.322 1205.16 213.105 1200.49 216.605C1195.82 219.872 1190.69 221.505 1185.09 221.505C1177.86 221.505 1172.26 219.872 1168.29 216.605C1164.56 213.338 1160.82 208.905 1157.09 203.305L1117.54 144.155H1084.99V218.005ZM1112.99 108.455C1126.29 108.455 1136.91 105.538 1144.84 99.7049C1153.01 93.8715 1157.09 85.0049 1157.09 73.1049C1157.09 49.5382 1141.34 37.7548 1109.84 37.7548C1105.17 37.7548 1100.62 37.9882 1096.19 38.4549C1091.99 38.9215 1088.02 39.3882 1084.29 39.8548V108.455H1112.99ZM1310.96 186.505C1324.49 186.505 1334.41 183.938 1340.71 178.805C1347.01 173.438 1350.16 166.788 1350.16 158.855C1350.16 151.622 1347.71 145.905 1342.81 141.705C1337.91 137.272 1330.44 133.538 1320.41 130.505L1298.01 123.505C1289.14 120.705 1281.09 117.555 1273.86 114.055C1266.63 110.555 1260.44 106.472 1255.31 101.805C1250.18 96.9049 1246.21 91.3049 1243.41 85.0049C1240.61 78.4715 1239.21 70.7715 1239.21 61.9048C1239.21 43.0049 1246.33 28.0715 1260.56 17.1048C1274.79 5.90485 1294.28 0.304849 1319.01 0.304849C1328.81 0.304849 1337.79 1.12151 1345.96 2.75484C1354.36 4.15485 1361.59 6.25485 1367.66 9.05484C1373.73 11.6215 1378.39 14.8882 1381.66 18.8548C1385.16 22.8215 1386.91 27.2549 1386.91 32.1549C1386.91 36.8215 1385.74 40.9049 1383.41 44.4049C1381.31 47.6715 1378.63 50.3549 1375.36 52.4548C1369.76 48.4882 1362.29 45.1048 1352.96 42.3049C1343.86 39.2715 1333.83 37.7548 1322.86 37.7548C1310.73 37.7548 1301.51 39.9715 1295.21 44.4049C1288.91 48.6048 1285.76 54.4382 1285.76 61.9048C1285.76 67.9715 1287.86 72.6382 1292.06 75.9049C1296.49 79.1715 1303.38 82.3215 1312.71 85.3548L1332.66 91.6549C1352.96 97.7215 1368.71 106.005 1379.91 116.505C1391.11 127.005 1396.71 141.238 1396.71 159.205C1396.71 168.772 1394.84 177.522 1391.11 185.455C1387.38 193.388 1381.89 200.272 1374.66 206.105C1367.66 211.705 1358.79 216.022 1348.06 219.055C1337.56 222.322 1325.54 223.955 1312.01 223.955C1301.28 223.955 1291.36 223.022 1282.26 221.155C1273.39 219.288 1265.69 216.838 1259.16 213.805C1252.63 210.538 1247.49 206.805 1243.76 202.605C1240.26 198.172 1238.51 193.388 1238.51 188.255C1238.51 182.888 1240.03 178.338 1243.06 174.605C1246.33 170.638 1250.06 167.722 1254.26 165.855C1260.09 170.988 1267.79 175.772 1277.36 180.205C1286.93 184.405 1298.13 186.505 1310.96 186.505ZM1482.5 218.005C1480.4 218.472 1477.37 219.055 1473.4 219.755C1469.67 220.455 1465.58 220.805 1461.15 220.805C1452.28 220.805 1445.98 219.172 1442.25 215.905C1438.75 212.638 1437 207.155 1437 199.455V5.90484C1438.87 5.43818 1441.78 4.85485 1445.75 4.15484C1449.95 3.45485 1454.03 3.10486 1458 3.10486C1466.4 3.10486 1472.58 4.62152 1476.55 7.65484C1480.52 10.6882 1482.5 16.2882 1482.5 24.4549V93.4049H1570V5.90484C1571.87 5.43818 1574.78 4.85485 1578.75 4.15484C1582.95 3.45485 1587.03 3.10486 1591 3.10486C1599.4 3.10486 1605.58 4.73819 1609.55 8.00485C1613.52 11.0382 1615.5 16.6382 1615.5 24.8048V218.005C1613.4 218.472 1610.37 219.055 1606.4 219.755C1602.67 220.455 1598.58 220.805 1594.15 220.805C1585.28 220.805 1578.98 219.172 1575.25 215.905C1571.75 212.638 1570 207.155 1570 199.455V129.805H1482.5V218.005ZM1870.33 111.955C1870.33 130.155 1867.65 146.255 1862.28 160.255C1856.91 174.255 1849.45 186.038 1839.88 195.605C1830.55 204.938 1819.35 212.055 1806.28 216.955C1793.21 221.622 1779.1 223.955 1763.93 223.955C1748.76 223.955 1734.65 221.622 1721.58 216.955C1708.51 212.055 1697.2 204.938 1687.63 195.605C1678.3 186.038 1670.95 174.255 1665.58 160.255C1660.21 146.255 1657.53 130.155 1657.53 111.955C1657.53 93.7548 1660.21 77.7715 1665.58 64.0049C1671.18 50.0048 1678.76 38.3382 1688.33 29.0049C1697.9 19.4382 1709.1 12.3215 1721.93 7.65484C1735 2.75485 1749 0.304849 1763.93 0.304849C1778.86 0.304849 1792.75 2.75485 1805.58 7.65484C1818.65 12.3215 1829.96 19.4382 1839.53 29.0049C1849.1 38.3382 1856.56 50.0048 1861.93 64.0049C1867.53 77.7715 1870.33 93.7548 1870.33 111.955ZM1823.78 111.955C1823.78 87.6882 1818.3 69.2549 1807.33 56.6549C1796.6 43.8215 1782.13 37.4049 1763.93 37.4049C1745.96 37.4049 1731.5 43.7049 1720.53 56.3048C1709.8 68.9049 1704.43 87.4549 1704.43 111.955C1704.43 136.455 1709.8 155.005 1720.53 167.605C1731.26 180.205 1745.73 186.505 1763.93 186.505C1782.13 186.505 1796.6 180.205 1807.33 167.605C1818.3 155.005 1823.78 136.455 1823.78 111.955ZM1958.28 147.655V218.005C1956.18 218.472 1953.15 219.055 1949.18 219.755C1945.45 220.455 1941.36 220.805 1936.93 220.805C1928.06 220.805 1921.76 219.172 1918.03 215.905C1914.53 212.638 1912.78 207.155 1912.78 199.455V23.7548C1912.78 19.3215 1913.95 15.9382 1916.28 13.6048C1918.61 11.2715 1921.88 9.40485 1926.08 8.00485C1929.81 6.83819 1933.9 5.78819 1938.33 4.85485C1943 3.92152 1947.78 3.22151 1952.68 2.75484C1957.58 2.05485 1962.48 1.58819 1967.38 1.35486C1972.28 1.12151 1976.95 1.00484 1981.38 1.00484C2012.18 1.00484 2035.28 7.65485 2050.68 20.9549C2066.31 34.0215 2074.13 51.7549 2074.13 74.1548C2074.13 96.5549 2066.55 114.405 2051.38 127.705C2036.21 141.005 2014.28 147.655 1985.58 147.655H1958.28ZM1982.78 111.255C1996.78 111.255 2007.75 108.222 2015.68 102.155C2023.85 96.0882 2027.93 86.7549 2027.93 74.1548C2027.93 62.0215 2024.08 52.9215 2016.38 46.8549C2008.91 40.7882 1997.95 37.7548 1983.48 37.7548C1973.45 37.7548 1964.93 38.4548 1957.93 39.8548V111.255H1982.78Z" fill="url(#paint0_linear_120_55)"/>
<defs>
<linearGradient id="paint0_linear_120_55" x1="1889.48" y1="906.26" x2="571.352" y2="-783.462" gradientUnits="userSpaceOnUse">
<stop offset="0.0955732" stop-color="white"/>
<stop offset="0.466378" stop-color="#289061"/>
</linearGradient>
</defs>
</svg>
