<svg width="354" height="421" viewBox="0 0 354 421" fill="none" xmlns="http://www.w3.org/2000/svg">
<path d="M142.49 82.8848C152.836 88.936 155.573 102.666 148.338 112.221L122.707 146.073C116.537 154.223 105.214 156.408 96.4541 151.14L11.569 100.089C5.55499 96.4716 1.87673 89.9672 1.87673 82.9494L1.87673 35.5084C1.87673 20.0622 18.6413 10.4461 31.9743 18.2445L142.49 82.8848Z" fill="url(#paint0_linear_115_8)"/>
<path d="M325.803 193.674C338.616 201.469 338.608 220.071 325.789 227.855L287.111 251.343C280.785 255.184 272.854 255.218 266.495 251.431L148.391 181.087C138.097 174.956 135.467 161.211 142.771 151.712L168.193 118.652C174.413 110.563 185.725 108.454 194.443 113.757L325.803 193.674Z" fill="url(#paint1_linear_115_8)"/>
<path d="M226.988 250.658C239.982 258.393 240.022 277.195 227.06 284.985L31.2007 402.697C17.8705 410.709 0.898119 401.108 0.898119 385.555V342.276C0.898119 337.839 2.37341 333.528 5.09182 330.022L106.424 199.315C112.612 191.333 123.781 189.217 132.46 194.384L226.988 250.658Z" fill="url(#paint2_linear_115_8)"/>
<path d="M81.003 164.082C91.3799 170.227 93.9989 184.089 86.5791 193.596L36.6672 257.549C24.9612 272.548 0.900586 264.27 0.900586 245.244L0.900586 151.735C0.900586 136.241 17.759 126.631 31.0911 134.526L81.003 164.082Z" fill="url(#paint3_linear_115_8)"/>
<defs>
<linearGradient id="paint0_linear_115_8" x1="142.165" y1="5.67892" x2="-19.6237" y2="95.3322" gradientUnits="userSpaceOnUse">
<stop stop-color="#54B2E9"/>
<stop offset="1" stop-color="#0078BD"/>
</linearGradient>
<linearGradient id="paint1_linear_115_8" x1="326.136" y1="109.267" x2="147.116" y2="254.655" gradientUnits="userSpaceOnUse">
<stop stop-color="#54B2E9"/>
<stop offset="1" stop-color="#0078BD"/>
</linearGradient>
<linearGradient id="paint2_linear_115_8" x1="224.241" y1="192.765" x2="-23.6786" y2="341.094" gradientUnits="userSpaceOnUse">
<stop stop-color="#54B2E9"/>
<stop offset="1" stop-color="#0078BD"/>
</linearGradient>
<linearGradient id="paint3_linear_115_8" x1="88.2582" y1="122.537" x2="-32.8663" y2="158.297" gradientUnits="userSpaceOnUse">
<stop stop-color="#54B2E9"/>
<stop offset="1" stop-color="#0078BD"/>
</linearGradient>
</defs>
</svg>
