<svg width="2666" height="464" viewBox="0 0 2666 464" fill="none" xmlns="http://www.w3.org/2000/svg">
<path d="M637.369 337.955C637.369 343.788 636.086 348.338 633.519 351.605C631.186 354.638 627.336 357.555 621.969 360.355C618.936 362.222 615.086 363.972 610.419 365.605C605.986 367.005 600.969 368.172 595.369 369.105C590.002 370.272 584.402 371.205 578.569 371.905C572.736 372.605 566.902 372.955 561.069 372.955C544.502 372.955 529.102 370.855 514.869 366.655C500.869 362.222 488.619 355.455 478.119 346.355C467.852 337.255 459.802 325.705 453.969 311.705C448.136 297.705 445.219 281.022 445.219 261.655C445.219 243.222 448.136 227.005 453.969 213.005C460.036 198.772 468.202 186.988 478.469 177.655C488.969 168.322 501.102 161.322 514.869 156.655C528.636 151.755 543.452 149.305 559.319 149.305C569.819 149.305 579.269 150.238 587.669 152.105C596.302 153.738 603.652 156.072 609.719 159.105C616.019 161.905 620.802 165.405 624.069 169.605C627.336 173.572 628.969 177.772 628.969 182.205C628.969 186.872 627.686 190.955 625.119 194.455C622.552 197.955 619.636 200.638 616.369 202.505C610.302 198.538 602.952 194.922 594.319 191.655C585.686 188.155 575.069 186.405 562.469 186.405C552.202 186.405 542.752 188.155 534.119 191.655C525.486 194.922 518.019 199.705 511.719 206.005C505.652 212.305 500.869 220.122 497.369 229.455C493.869 238.788 492.119 249.405 492.119 261.305C492.119 274.138 493.869 285.222 497.369 294.555C500.869 303.888 505.652 311.705 511.719 318.005C518.019 324.072 525.369 328.622 533.769 331.655C542.402 334.455 551.736 335.855 561.769 335.855C568.536 335.855 574.719 335.272 580.319 334.105C585.919 332.938 590.236 331.538 593.269 329.905V281.255H548.469C547.302 279.388 546.252 276.938 545.319 273.905C544.386 270.872 543.919 267.488 543.919 263.755C543.919 257.688 545.319 253.138 548.119 250.105C551.152 247.072 555.002 245.555 559.669 245.555H618.469C624.302 245.555 628.852 247.188 632.119 250.455C635.619 253.722 637.369 258.272 637.369 264.105V337.955ZM724.981 367.005C722.881 367.472 720.081 368.055 716.581 368.755C713.081 369.455 709.114 369.805 704.681 369.805C696.514 369.805 690.448 368.288 686.481 365.255C682.514 362.222 680.531 356.855 680.531 349.155V238.205C680.531 232.138 681.931 227.005 684.731 222.805C687.531 218.605 691.614 214.872 696.981 211.605C704.214 207.172 713.081 203.555 723.581 200.755C734.314 197.955 745.864 196.555 758.231 196.555C780.398 196.555 791.481 203.438 791.481 217.205C791.481 220.472 790.898 223.622 789.731 226.655C788.798 229.455 787.748 231.788 786.581 233.655C781.214 232.488 774.564 231.905 766.631 231.905C758.464 231.905 750.764 232.838 743.531 234.705C736.298 236.572 730.114 238.905 724.981 241.705V367.005ZM977.965 284.405C977.965 297.938 975.865 310.188 971.665 321.155C967.699 331.888 961.982 341.105 954.515 348.805C947.049 356.505 938.065 362.455 927.565 366.655C917.065 370.622 905.282 372.605 892.215 372.605C879.149 372.605 867.365 370.622 856.865 366.655C846.365 362.455 837.382 356.622 829.915 349.155C822.449 341.455 816.615 332.238 812.415 321.505C808.449 310.538 806.465 298.172 806.465 284.405C806.465 270.872 808.449 258.738 812.415 248.005C816.615 237.038 822.449 227.822 829.915 220.355C837.615 212.655 846.715 206.822 857.215 202.855C867.715 198.655 879.382 196.555 892.215 196.555C905.049 196.555 916.715 198.655 927.215 202.855C937.715 206.822 946.699 212.655 954.165 220.355C961.865 228.055 967.699 237.388 971.665 248.355C975.865 259.088 977.965 271.105 977.965 284.405ZM892.215 231.555C879.615 231.555 869.699 236.222 862.465 245.555C855.232 254.655 851.615 267.605 851.615 284.405C851.615 301.438 855.115 314.505 862.115 323.605C869.349 332.705 879.382 337.255 892.215 337.255C905.049 337.255 914.965 332.705 921.965 323.605C929.199 314.272 932.815 301.205 932.815 284.405C932.815 267.605 929.199 254.655 921.965 245.555C914.732 236.222 904.815 231.555 892.215 231.555ZM1177.57 284.405C1177.57 297.938 1175.47 310.188 1171.27 321.155C1167.31 331.888 1161.59 341.105 1154.12 348.805C1146.66 356.505 1137.67 362.455 1127.17 366.655C1116.67 370.622 1104.89 372.605 1091.82 372.605C1078.76 372.605 1066.97 370.622 1056.47 366.655C1045.97 362.455 1036.99 356.622 1029.52 349.155C1022.06 341.455 1016.22 332.238 1012.02 321.505C1008.06 310.538 1006.07 298.172 1006.07 284.405C1006.07 270.872 1008.06 258.738 1012.02 248.005C1016.22 237.038 1022.06 227.822 1029.52 220.355C1037.22 212.655 1046.32 206.822 1056.82 202.855C1067.32 198.655 1078.99 196.555 1091.82 196.555C1104.66 196.555 1116.32 198.655 1126.82 202.855C1137.32 206.822 1146.31 212.655 1153.77 220.355C1161.47 228.055 1167.31 237.388 1171.27 248.355C1175.47 259.088 1177.57 271.105 1177.57 284.405ZM1091.82 231.555C1079.22 231.555 1069.31 236.222 1062.07 245.555C1054.84 254.655 1051.22 267.605 1051.22 284.405C1051.22 301.438 1054.72 314.505 1061.72 323.605C1068.96 332.705 1078.99 337.255 1091.82 337.255C1104.66 337.255 1114.57 332.705 1121.57 323.605C1128.81 314.272 1132.42 301.205 1132.42 284.405C1132.42 267.605 1128.81 254.655 1121.57 245.555C1114.34 236.222 1104.42 231.555 1091.82 231.555ZM1460.48 367.005C1458.62 367.472 1455.82 368.055 1452.08 368.755C1448.58 369.455 1444.73 369.805 1440.53 369.805C1432.13 369.805 1425.95 368.288 1421.98 365.255C1418.25 362.222 1416.38 356.855 1416.38 349.155V258.155C1416.38 248.822 1413.82 242.055 1408.68 237.855C1403.55 233.655 1396.78 231.555 1388.38 231.555C1382.78 231.555 1377.3 232.605 1371.93 234.705C1366.8 236.805 1362.25 239.605 1358.28 243.105C1358.98 246.372 1359.33 249.638 1359.33 252.905V367.005C1357.47 367.472 1354.67 368.055 1350.93 368.755C1347.43 369.455 1343.58 369.805 1339.38 369.805C1330.98 369.805 1324.8 368.288 1320.83 365.255C1317.1 362.222 1315.23 356.855 1315.23 349.155V258.155C1315.23 248.822 1312.55 242.055 1307.18 237.855C1301.82 233.655 1294.93 231.555 1286.53 231.555C1280.7 231.555 1275.33 232.488 1270.43 234.355C1265.53 236.222 1261.45 238.088 1258.18 239.955V367.005C1256.08 367.472 1253.28 368.055 1249.78 368.755C1246.28 369.455 1242.32 369.805 1237.88 369.805C1229.72 369.805 1223.65 368.288 1219.68 365.255C1215.72 362.222 1213.73 356.855 1213.73 349.155V236.805C1213.73 231.438 1214.9 227.005 1217.23 223.505C1219.57 219.772 1223.18 216.272 1228.08 213.005C1235.08 208.338 1243.95 204.488 1254.68 201.455C1265.42 198.188 1276.5 196.555 1287.93 196.555C1309.17 196.555 1326.43 202.272 1339.73 213.705C1346.5 208.805 1354.2 204.722 1362.83 201.455C1371.7 198.188 1382.08 196.555 1393.98 196.555C1403.08 196.555 1411.72 197.722 1419.88 200.055C1428.05 202.155 1435.05 205.655 1440.88 210.555C1446.95 215.455 1451.73 221.755 1455.23 229.455C1458.73 236.922 1460.48 245.905 1460.48 256.405V367.005ZM1690.45 337.955C1690.45 343.788 1689.16 348.338 1686.6 351.605C1684.26 354.638 1680.41 357.555 1675.05 360.355C1672.01 362.222 1668.16 363.972 1663.5 365.605C1659.06 367.005 1654.05 368.172 1648.45 369.105C1643.08 370.272 1637.48 371.205 1631.65 371.905C1625.81 372.605 1619.98 372.955 1614.15 372.955C1597.58 372.955 1582.18 370.855 1567.95 366.655C1553.95 362.222 1541.7 355.455 1531.2 346.355C1520.93 337.255 1512.88 325.705 1507.05 311.705C1501.21 297.705 1498.3 281.022 1498.3 261.655C1498.3 243.222 1501.21 227.005 1507.05 213.005C1513.11 198.772 1521.28 186.988 1531.55 177.655C1542.05 168.322 1554.18 161.322 1567.95 156.655C1581.71 151.755 1596.53 149.305 1612.4 149.305C1622.9 149.305 1632.35 150.238 1640.75 152.105C1649.38 153.738 1656.73 156.072 1662.8 159.105C1669.1 161.905 1673.88 165.405 1677.15 169.605C1680.41 173.572 1682.05 177.772 1682.05 182.205C1682.05 186.872 1680.76 190.955 1678.2 194.455C1675.63 197.955 1672.71 200.638 1669.45 202.505C1663.38 198.538 1656.03 194.922 1647.4 191.655C1638.76 188.155 1628.15 186.405 1615.55 186.405C1605.28 186.405 1595.83 188.155 1587.2 191.655C1578.56 194.922 1571.1 199.705 1564.8 206.005C1558.73 212.305 1553.95 220.122 1550.45 229.455C1546.95 238.788 1545.2 249.405 1545.2 261.305C1545.2 274.138 1546.95 285.222 1550.45 294.555C1553.95 303.888 1558.73 311.705 1564.8 318.005C1571.1 324.072 1578.45 328.622 1586.85 331.655C1595.48 334.455 1604.81 335.855 1614.85 335.855C1621.61 335.855 1627.8 335.272 1633.4 334.105C1639 332.938 1643.31 331.538 1646.35 329.905V281.255H1601.55C1600.38 279.388 1599.33 276.938 1598.4 273.905C1597.46 270.872 1597 267.488 1597 263.755C1597 257.688 1598.4 253.138 1601.2 250.105C1604.23 247.072 1608.08 245.555 1612.75 245.555H1671.55C1677.38 245.555 1681.93 247.188 1685.2 250.455C1688.7 253.722 1690.45 258.272 1690.45 264.105V337.955ZM1778.06 367.005C1775.96 367.472 1773.16 368.055 1769.66 368.755C1766.16 369.455 1762.19 369.805 1757.76 369.805C1749.59 369.805 1743.52 368.288 1739.56 365.255C1735.59 362.222 1733.61 356.855 1733.61 349.155V238.205C1733.61 232.138 1735.01 227.005 1737.81 222.805C1740.61 218.605 1744.69 214.872 1750.06 211.605C1757.29 207.172 1766.16 203.555 1776.66 200.755C1787.39 197.955 1798.94 196.555 1811.31 196.555C1833.47 196.555 1844.56 203.438 1844.56 217.205C1844.56 220.472 1843.97 223.622 1842.81 226.655C1841.87 229.455 1840.82 231.788 1839.66 233.655C1834.29 232.488 1827.64 231.905 1819.71 231.905C1811.54 231.905 1803.84 232.838 1796.61 234.705C1789.37 236.572 1783.19 238.905 1778.06 241.705V367.005ZM1874.47 202.855C1876.34 202.388 1879.02 201.805 1882.52 201.105C1886.25 200.405 1890.22 200.055 1894.42 200.055C1902.82 200.055 1908.89 201.572 1912.62 204.605C1916.59 207.638 1918.57 213.005 1918.57 220.705V367.005C1916.7 367.472 1913.9 368.055 1910.17 368.755C1906.67 369.455 1902.82 369.805 1898.62 369.805C1890.22 369.805 1884.04 368.288 1880.07 365.255C1876.34 362.222 1874.47 356.855 1874.47 349.155V202.855ZM1870.97 152.105C1870.97 145.338 1873.3 139.622 1877.97 134.955C1882.87 130.055 1889.05 127.605 1896.52 127.605C1903.99 127.605 1910.05 130.055 1914.72 134.955C1919.39 139.622 1921.72 145.338 1921.72 152.105C1921.72 159.105 1919.39 165.055 1914.72 169.955C1910.05 174.622 1903.99 176.955 1896.52 176.955C1889.05 176.955 1882.87 174.622 1877.97 169.955C1873.3 165.055 1870.97 159.105 1870.97 152.105ZM2117.97 335.155C2117.97 340.522 2116.8 344.838 2114.47 348.105C2112.14 351.372 2108.64 354.522 2103.97 357.555C2098.14 361.288 2090.44 364.672 2080.87 367.705C2071.3 370.972 2060.22 372.605 2047.62 372.605C2019.62 372.605 1997.34 365.488 1980.77 351.255C1964.44 336.788 1956.27 314.738 1956.27 285.105C1956.27 269.705 1958.49 256.522 1962.92 245.555C1967.35 234.355 1973.3 225.138 1980.77 217.905C1988.47 210.672 1997.45 205.305 2007.72 201.805C2017.99 198.305 2029.07 196.555 2040.97 196.555C2047.27 196.555 2053.22 197.255 2058.82 198.655C2064.42 199.822 2069.44 201.338 2073.87 203.205V139.855C2075.74 139.155 2078.42 138.572 2081.92 138.105C2085.65 137.405 2089.62 137.055 2093.82 137.055C2102.22 137.055 2108.29 138.572 2112.02 141.605C2115.99 144.638 2117.97 150.005 2117.97 157.705V335.155ZM2073.87 238.905C2070.37 236.805 2066.29 235.055 2061.62 233.655C2056.95 232.255 2051.94 231.555 2046.57 231.555C2033.5 231.555 2022.65 235.755 2014.02 244.155C2005.39 252.555 2001.07 266.322 2001.07 285.455C2001.07 303.422 2005.15 316.605 2013.32 325.005C2021.72 333.172 2033.04 337.255 2047.27 337.255C2053.34 337.255 2058.47 336.555 2062.67 335.155C2067.1 333.755 2070.84 332.122 2073.87 330.255V238.905Z" fill="url(#paint0_linear_124_8)"/>
<path d="M140.324 139.422C150.99 145.442 153.788 159.549 146.228 169.185L121.687 200.463C115.532 208.308 104.538 210.42 95.9132 205.415L11.8838 156.648C5.71774 153.069 1.92278 146.479 1.92278 139.35L1.92278 95.5604C1.92278 80.2509 18.421 70.6181 31.7534 78.1432L140.324 139.422Z" fill="url(#paint1_linear_124_8)"/>
<path d="M321.511 245.067C334.683 252.8 334.675 271.848 321.497 279.57L284.512 301.242C278.32 304.871 270.658 304.903 264.435 301.327L148.171 234.504C137.553 228.402 134.864 214.277 142.496 204.7L166.827 174.166C173.03 166.383 184.011 164.344 192.594 169.383L321.511 245.067Z" fill="url(#paint2_linear_124_8)"/>
<path d="M223.523 299.586C236.875 307.256 236.914 326.504 223.595 334.229L30.9828 445.936C17.6495 453.669 0.948914 444.049 0.948914 428.635V388.621C0.948914 384.065 2.50417 379.646 5.35735 376.095L105.59 251.333C111.759 243.653 122.602 241.61 131.144 246.517L223.523 299.586Z" fill="url(#paint3_linear_124_8)"/>
<path d="M79.347 217.082C90.0477 223.197 92.7251 237.441 84.9749 247.024L36.4999 306.961C24.6448 321.619 0.949242 313.236 0.949242 294.384L0.949242 206.747C0.949242 191.39 17.5389 181.763 30.872 189.382L79.347 217.082Z" fill="url(#paint4_linear_124_8)"/>
<defs>
<linearGradient id="paint0_linear_124_8" x1="2345.48" y1="1055.26" x2="1027.35" y2="-634.462" gradientUnits="userSpaceOnUse">
<stop offset="0.0955732" stop-color="white"/>
<stop offset="0.675924" stop-color="#289061"/>
</linearGradient>
<linearGradient id="paint1_linear_124_8" x1="140.999" y1="66.1262" x2="-16.6555" y2="156.658" gradientUnits="userSpaceOnUse">
<stop stop-color="#58FFB4"/>
<stop offset="1" stop-color="#289061"/>
</linearGradient>
<linearGradient id="paint2_linear_124_8" x1="323.378" y1="165.222" x2="150.968" y2="310.323" gradientUnits="userSpaceOnUse">
<stop stop-color="#58FFB4"/>
<stop offset="1" stop-color="#289061"/>
</linearGradient>
<linearGradient id="paint3_linear_124_8" x1="222.362" y1="245.1" x2="-18.7203" y2="394.572" gradientUnits="userSpaceOnUse">
<stop stop-color="#58FFB4"/>
<stop offset="1" stop-color="#289061"/>
</linearGradient>
<linearGradient id="paint4_linear_124_8" x1="87.552" y1="177.917" x2="-31.8188" y2="214.437" gradientUnits="userSpaceOnUse">
<stop stop-color="#58FFB4"/>
<stop offset="1" stop-color="#289061"/>
</linearGradient>
</defs>
</svg>
