<svg fill="none" height="485" viewBox="0 0 2157 485" width="2157" xmlns="http://www.w3.org/2000/svg" xmlns:xlink="http://www.w3.org/1999/xlink"><linearGradient id="a" gradientUnits="userSpaceOnUse" x1="1910.09" x2="491.765" y1="1103.64" y2="-237.035"><stop offset=".0955732" stop-color="#fff"/><stop offset=".675924" stop-color="#0078bd"/></linearGradient><linearGradient id="b"><stop offset="0" stop-color="#54b2e9"/><stop offset="1" stop-color="#0078bd"/></linearGradient><linearGradient id="c" gradientUnits="userSpaceOnUse" x1="142.165" x2="-19.6237" xlink:href="#b" y1="69.6789" y2="159.332"/><linearGradient id="d" gradientUnits="userSpaceOnUse" x1="326.136" x2="147.116" xlink:href="#b" y1="173.267" y2="318.655"/><linearGradient id="e" gradientUnits="userSpaceOnUse" x1="224.241" x2="-23.6786" xlink:href="#b" y1="256.765" y2="405.094"/><linearGradient id="f" gradientUnits="userSpaceOnUse" x1="88.2582" x2="-32.8663" xlink:href="#b" y1="186.537" y2="222.297"/><path d="m641.058 338.53c0 5.833-1.284 10.383-3.85 13.65-2.334 3.033-6.184 5.95-11.55 8.75-3.034 1.866-6.884 3.616-11.55 5.25-4.434 1.4-9.45 2.566-15.05 3.5-5.367 1.166-10.967 2.1-16.8 2.8-5.834.7-11.667 1.05-17.5 1.05-16.567 0-31.967-2.1-46.2-6.3-14-4.434-26.25-11.2-36.75-20.3-10.267-9.1-18.317-20.65-24.15-34.65-5.834-14-8.75-30.684-8.75-50.05 0-18.434 2.916-34.65 8.75-48.65 6.066-14.234 14.233-26.017 24.5-35.35 10.5-9.334 22.633-16.334 36.4-21 13.766-4.9 28.583-7.35 44.45-7.35 10.5 0 19.95.933 28.35 2.8 8.633 1.633 15.983 3.966 22.05 7 6.3 2.8 11.083 6.3 14.35 10.5 3.266 3.966 4.9 8.166 4.9 12.6 0 4.666-1.284 8.75-3.85 12.25-2.567 3.5-5.484 6.183-8.75 8.05-6.067-3.967-13.417-7.584-22.05-10.85-8.634-3.5-19.25-5.25-31.85-5.25-10.267 0-19.717 1.75-28.35 5.25-8.634 3.266-16.1 8.05-22.4 14.35-6.067 6.3-10.85 14.116-14.35 23.45-3.5 9.333-5.25 19.95-5.25 31.85 0 12.833 1.75 23.916 5.25 33.25 3.5 9.333 8.283 17.15 14.35 23.45 6.3 6.066 13.65 10.616 22.05 13.65 8.633 2.8 17.966 4.2 28 4.2 6.766 0 12.95-.584 18.55-1.75 5.6-1.167 9.916-2.567 12.95-4.2v-48.65h-44.8c-1.167-1.867-2.217-4.317-3.15-7.35-.934-3.034-1.4-6.417-1.4-10.15 0-6.067 1.4-10.617 4.2-13.65 3.033-3.034 6.883-4.55 11.55-4.55h58.8c5.833 0 10.383 1.633 13.65 4.9 3.5 3.266 5.25 7.816 5.25 13.65zm87.612 29.05c-2.1.466-4.9 1.05-8.4 1.75s-7.467 1.05-11.9 1.05c-8.167 0-14.233-1.517-18.2-4.55-3.967-3.034-5.95-8.4-5.95-16.1v-110.95c0-6.067 1.4-11.2 4.2-15.4s6.883-7.934 12.25-11.2c7.233-4.434 16.1-8.05 26.6-10.85 10.733-2.8 22.283-4.2 34.65-4.2 22.167 0 33.25 6.883 33.25 20.65 0 3.266-.583 6.416-1.75 9.45-.933 2.8-1.983 5.133-3.15 7-5.367-1.167-12.017-1.75-19.95-1.75-8.167 0-15.867.933-23.1 2.8-7.233 1.866-13.417 4.2-18.55 7zm252.984-82.6c0 13.533-2.1 25.783-6.3 36.75-3.966 10.733-9.683 19.95-17.15 27.65-7.466 7.7-16.45 13.65-26.95 17.85-10.5 3.966-22.283 5.95-35.35 5.95-13.066 0-24.85-1.984-35.35-5.95-10.5-4.2-19.483-10.034-26.95-17.5-7.466-7.7-13.3-16.917-17.5-27.65-3.966-10.967-5.95-23.334-5.95-37.1 0-13.534 1.984-25.667 5.95-36.4 4.2-10.967 10.034-20.184 17.5-27.65 7.7-7.7 16.8-13.534 27.3-17.5 10.5-4.2 22.167-6.3 35-6.3 12.834 0 24.5 2.1 35 6.3 10.5 3.966 19.484 9.8 26.95 17.5 7.7 7.7 13.534 17.033 17.5 28 4.2 10.733 6.3 22.75 6.3 36.05zm-85.75-52.85c-12.6 0-22.516 4.666-29.75 14-7.233 9.1-10.85 22.05-10.85 38.85 0 17.033 3.5 30.1 10.5 39.2 7.234 9.1 17.267 13.65 30.1 13.65 12.834 0 22.75-4.55 29.75-13.65 7.234-9.334 10.85-22.4 10.85-39.2s-3.616-29.75-10.85-38.85c-7.233-9.334-17.15-14-29.75-14zm285.356 52.85c0 13.533-2.1 25.783-6.3 36.75-3.96 10.733-9.68 19.95-17.15 27.65-7.46 7.7-16.45 13.65-26.95 17.85-10.5 3.966-22.28 5.95-35.35 5.95-13.06 0-24.85-1.984-35.35-5.95-10.5-4.2-19.48-10.034-26.95-17.5-7.46-7.7-13.3-16.917-17.5-27.65-3.96-10.967-5.95-23.334-5.95-37.1 0-13.534 1.99-25.667 5.95-36.4 4.2-10.967 10.04-20.184 17.5-27.65 7.7-7.7 16.8-13.534 27.3-17.5 10.5-4.2 22.17-6.3 35-6.3 12.84 0 24.5 2.1 35 6.3 10.5 3.966 19.49 9.8 26.95 17.5 7.7 7.7 13.54 17.033 17.5 28 4.2 10.733 6.3 22.75 6.3 36.05zm-85.75-52.85c-12.6 0-22.51 4.666-29.75 14-7.23 9.1-10.85 22.05-10.85 38.85 0 17.033 3.5 30.1 10.5 39.2 7.24 9.1 17.27 13.65 30.1 13.65 12.84 0 22.75-4.55 29.75-13.65 7.24-9.334 10.85-22.4 10.85-39.2s-3.61-29.75-10.85-38.85c-7.23-9.334-17.15-14-29.75-14zm368.66 135.45c-1.86.466-4.66 1.05-8.4 1.75-3.5.7-7.35 1.05-11.55 1.05-8.4 0-14.58-1.517-18.55-4.55-3.73-3.034-5.6-8.4-5.6-16.1v-91c0-9.334-2.56-16.1-7.7-20.3-5.13-4.2-11.9-6.3-20.3-6.3-5.6 0-11.08 1.05-16.45 3.15-5.13 2.1-9.68 4.9-13.65 8.4.7 3.266 1.05 6.533 1.05 9.8v114.1c-1.86.466-4.66 1.05-8.4 1.75-3.5.7-7.35 1.05-11.55 1.05-8.4 0-14.58-1.517-18.55-4.55-3.73-3.034-5.6-8.4-5.6-16.1v-91c0-9.334-2.68-16.1-8.05-20.3-5.36-4.2-12.25-6.3-20.65-6.3-5.83 0-11.2.933-16.1 2.8-4.9 1.866-8.98 3.733-12.25 5.6v127.05c-2.1.466-4.9 1.05-8.4 1.75s-7.46 1.05-11.9 1.05c-8.16 0-14.23-1.517-18.2-4.55-3.96-3.034-5.95-8.4-5.95-16.1v-112.35c0-5.367 1.17-9.8 3.5-13.3 2.34-3.734 5.95-7.234 10.85-10.5 7-4.667 15.87-8.517 26.6-11.55 10.74-3.267 21.82-4.9 33.25-4.9 21.24 0 38.5 5.716 51.8 17.15 6.77-4.9 14.47-8.984 23.1-12.25 8.87-3.267 19.25-4.9 31.15-4.9 9.1 0 17.74 1.166 25.9 3.5 8.17 2.1 15.17 5.6 21 10.5 6.07 4.9 10.85 11.2 14.35 18.9 3.5 7.466 5.25 16.45 5.25 26.95zm229.96-29.05c0 5.833-1.28 10.383-3.85 13.65-2.33 3.033-6.18 5.95-11.55 8.75-3.03 1.866-6.88 3.616-11.55 5.25-4.43 1.4-9.45 2.566-15.05 3.5-5.36 1.166-10.96 2.1-16.8 2.8-5.83.7-11.66 1.05-17.5 1.05-16.56 0-31.96-2.1-46.2-6.3-14-4.434-26.25-11.2-36.75-20.3-10.26-9.1-18.31-20.65-24.15-34.65-5.83-14-8.75-30.684-8.75-50.05 0-18.434 2.92-34.65 8.75-48.65 6.07-14.234 14.24-26.017 24.5-35.35 10.5-9.334 22.64-16.334 36.4-21 13.77-4.9 28.59-7.35 44.45-7.35 10.5 0 19.95.933 28.35 2.8 8.64 1.633 15.99 3.966 22.05 7 6.3 2.8 11.09 6.3 14.35 10.5 3.27 3.966 4.9 8.166 4.9 12.6 0 4.666-1.28 8.75-3.85 12.25-2.56 3.5-5.48 6.183-8.75 8.05-6.06-3.967-13.41-7.584-22.05-10.85-8.63-3.5-19.25-5.25-31.85-5.25-10.26 0-19.71 1.75-28.35 5.25-8.63 3.266-16.1 8.05-22.4 14.35-6.06 6.3-10.85 14.116-14.35 23.45-3.5 9.333-5.25 19.95-5.25 31.85 0 12.833 1.75 23.916 5.25 33.25 3.5 9.333 8.29 17.15 14.35 23.45 6.3 6.066 13.65 10.616 22.05 13.65 8.64 2.8 17.97 4.2 28 4.2 6.77 0 12.95-.584 18.55-1.75 5.6-1.167 9.92-2.567 12.95-4.2v-48.65h-44.8c-1.16-1.867-2.21-4.317-3.15-7.35-.93-3.034-1.4-6.417-1.4-10.15 0-6.067 1.4-10.617 4.2-13.65 3.04-3.034 6.89-4.55 11.55-4.55h58.8c5.84 0 10.39 1.633 13.65 4.9 3.5 3.266 5.25 7.816 5.25 13.65zm87.62 29.05c-2.1.466-4.9 1.05-8.4 1.75s-7.47 1.05-11.9 1.05c-8.17 0-14.24-1.517-18.2-4.55-3.97-3.034-5.95-8.4-5.95-16.1v-110.95c0-6.067 1.4-11.2 4.2-15.4s6.88-7.934 12.25-11.2c7.23-4.434 16.1-8.05 26.6-10.85 10.73-2.8 22.28-4.2 34.65-4.2 22.16 0 33.25 6.883 33.25 20.65 0 3.266-.59 6.416-1.75 9.45-.94 2.8-1.99 5.133-3.15 7-5.37-1.167-12.02-1.75-19.95-1.75-8.17 0-15.87.933-23.1 2.8-7.24 1.866-13.42 4.2-18.55 7zm96.41-164.15c1.86-.467 4.55-1.05 8.05-1.75 3.73-.7 7.7-1.05 11.9-1.05 8.4 0 14.46 1.516 18.2 4.55 3.96 3.033 5.95 8.4 5.95 16.1v146.3c-1.87.466-4.67 1.05-8.4 1.75-3.5.7-7.35 1.05-11.55 1.05-8.4 0-14.59-1.517-18.55-4.55-3.74-3.034-5.6-8.4-5.6-16.1zm-3.5-50.75c0-6.767 2.33-12.484 7-17.15 4.9-4.9 11.08-7.35 18.55-7.35 7.46 0 13.53 2.45 18.2 7.35 4.66 4.666 7 10.383 7 17.15 0 7-2.34 12.95-7 17.85-4.67 4.666-10.74 7-18.2 7-7.47 0-13.65-2.334-18.55-7-4.67-4.9-7-10.85-7-17.85zm247 183.05c0 5.366-1.17 9.683-3.5 12.95-2.33 3.266-5.83 6.416-10.5 9.45-5.83 3.733-13.53 7.116-23.1 10.15-9.57 3.266-20.65 4.9-33.25 4.9-28 0-50.28-7.117-66.85-21.35-16.33-14.467-24.5-36.517-24.5-66.15 0-15.4 2.22-28.584 6.65-39.55 4.43-11.2 10.38-20.417 17.85-27.65 7.7-7.234 16.68-12.6 26.95-16.1s21.35-5.25 33.25-5.25c6.3 0 12.25.7 17.85 2.1 5.6 1.166 10.62 2.683 15.05 4.55v-63.35c1.87-.7 4.55-1.284 8.05-1.75 3.73-.7 7.7-1.05 11.9-1.05 8.4 0 14.47 1.516 18.2 4.55 3.97 3.033 5.95 8.4 5.95 16.1zm-44.1-96.25c-3.5-2.1-7.58-3.85-12.25-5.25s-9.68-2.1-15.05-2.1c-13.07 0-23.92 4.2-32.55 12.6s-12.95 22.166-12.95 41.3c0 17.966 4.08 31.15 12.25 39.55 8.4 8.166 19.72 12.25 33.95 12.25 6.07 0 11.2-.7 15.4-2.1 4.43-1.4 8.17-3.034 11.2-4.9z" fill="url(#a)"/><path d="m142.49 146.885c10.346 6.051 13.083 19.781 5.848 29.336l-25.631 33.852c-6.17 8.15-17.493 10.335-26.2529 5.067l-84.8851-51.051c-6.01401-3.617-9.69227-10.122-9.69227-17.14v-47.4406c0-15.4462 16.76457-25.0623 30.09757-17.2639z" fill="url(#c)"/><path d="m325.803 257.674c12.813 7.795 12.805 26.397-.014 34.181l-38.678 23.488c-6.326 3.841-14.257 3.875-20.616.088l-118.104-70.344c-10.294-6.131-12.924-19.876-5.62-29.375l25.422-33.06c6.22-8.089 17.532-10.198 26.25-4.895z" fill="url(#d)"/><path d="m226.988 314.658c12.994 7.735 13.034 26.537.072 34.327l-195.8593 117.712c-13.3302 8.012-30.302581-1.589-30.302581-17.142v-43.279c0-4.437 1.475291-8.748 4.193701-12.254l101.33218-130.707c6.188-7.982 17.357-10.098 26.036-4.931z" fill="url(#e)"/><path d="m81.003 228.082c10.3769 6.145 12.9959 20.007 5.5761 29.514l-49.9119 63.953c-11.706 14.999-35.766614 6.721-35.766614-12.305v-93.509c0-15.494 16.858414-25.104 30.190514-17.209z" fill="url(#f)"/></svg>